<?xml version="1.0" encoding="utf-8"?>
<svg viewBox="0 0 1268 365" fill="none" xmlns="http://www.w3.org/2000/svg">
  <path d="M111.416 251.77C109.808 244.835 113.659 237.763 120.382 235.452L141.806 227.885L137.955 217.031C128.993 191.606 142.365 163.588 167.786 154.623C193.203 145.658 221.209 159.037 230.17 184.462L234.022 195.317L255.451 187.754C262.173 185.371 269.594 188.454 272.674 194.826L322.249 296.806L335.693 129.13C336.462 119.393 329.812 110.637 320.287 108.747L289.829 102.793L292.84 87.3149C299.912 51.0316 276.244 15.8015 239.976 8.65737C203.704 1.58549 168.485 25.2573 161.341 61.5405L158.33 77.0188L127.872 71.0648C118.279 69.1751 108.827 74.7756 105.884 84.0907L31.1048 320.481C27.5346 331.758 34.6065 343.663 46.2295 345.974L137.187 363.837L111.416 251.77ZM284.369 130.879C283.457 135.502 278.978 138.514 274.354 137.605C269.735 136.693 266.724 132.21 267.632 127.587C268.545 122.963 273.024 119.952 277.647 120.864C282.198 121.773 285.278 126.256 284.369 130.879ZM178.219 64.9016C183.538 37.9334 209.727 20.2841 236.756 25.5386C263.781 30.7893 281.358 57.0579 276.107 84.0907L273.096 99.5728L175.208 80.3799L178.219 64.9016ZM162.953 98.3789C167.573 99.2914 170.584 103.774 169.676 108.397C168.763 113.021 164.284 116.032 159.661 115.119C155.041 114.211 152.03 109.728 152.939 105.105C153.779 100.481 158.262 97.4702 162.953 98.3789Z" fill="#FF6650"/>
  <path d="M218.411 188.595C211.757 169.683 190.891 159.665 171.915 166.391C153.011 173.044 142.996 193.918 149.718 212.898L153.57 223.753L222.258 199.518L218.411 188.595Z" fill="#FF6650"/>
  <path d="M152.521 239.653C149.3 240.775 147.547 244.345 148.737 247.637C149.859 250.861 153.429 252.61 156.722 251.42C159.942 250.299 161.691 246.729 160.501 243.436C159.383 240.216 155.809 238.463 152.521 239.653Z" fill="#FF6650"/>
  <path d="M237.174 222.985C240.394 221.863 242.147 218.293 240.957 215C239.835 211.776 236.265 210.027 232.973 211.217C229.684 212.407 228.003 215.909 229.193 219.202C230.383 222.422 233.954 224.175 237.174 222.985Z" fill="#FF6650"/>
  <path d="M408.555 108.812V251H376.719V108.812H408.555ZM493.516 108.812L437.852 179.906L405.43 215.062L399.668 185.473L421.055 154.809L454.453 108.812H493.516ZM456.602 251L417.344 186.059L441.562 167.211L494.297 251H456.602ZM538.145 108.812V251H506.406V108.812H538.145ZM645.566 203.344H677.207C676.686 213.109 674.017 221.736 669.199 229.223C664.447 236.645 657.839 242.471 649.375 246.703C640.911 250.87 630.853 252.953 619.199 252.953C609.889 252.953 601.556 251.358 594.199 248.168C586.842 244.978 580.592 240.421 575.449 234.496C570.371 228.507 566.465 221.312 563.73 212.914C561.061 204.451 559.727 194.913 559.727 184.301V175.609C559.727 164.997 561.126 155.46 563.926 146.996C566.725 138.533 570.729 131.306 575.938 125.316C581.146 119.327 587.396 114.737 594.688 111.547C601.979 108.357 610.117 106.762 619.102 106.762C631.211 106.762 641.432 108.943 649.766 113.305C658.099 117.667 664.544 123.656 669.102 131.273C673.724 138.891 676.491 147.582 677.402 157.348H645.664C645.404 151.814 644.362 147.159 642.539 143.383C640.716 139.542 637.917 136.645 634.141 134.691C630.365 132.738 625.352 131.762 619.102 131.762C614.544 131.762 610.54 132.608 607.09 134.301C603.704 135.993 600.872 138.63 598.594 142.211C596.38 145.792 594.72 150.349 593.613 155.883C592.507 161.352 591.953 167.862 591.953 175.414V184.301C591.953 191.788 592.441 198.266 593.418 203.734C594.395 209.203 595.957 213.728 598.105 217.309C600.319 220.889 603.151 223.559 606.602 225.316C610.052 227.074 614.251 227.953 619.199 227.953C624.863 227.953 629.583 227.074 633.359 225.316C637.135 223.493 640.033 220.759 642.051 217.113C644.069 213.467 645.241 208.878 645.566 203.344ZM726.719 108.812V251H694.883V108.812H726.719ZM811.68 108.812L756.016 179.906L723.594 215.062L717.832 185.473L739.219 154.809L772.617 108.812H811.68ZM774.766 251L735.508 186.059L759.727 167.211L812.461 251H774.766ZM909.238 216.039C909.238 212.133 908.587 208.65 907.285 205.59C905.983 202.53 903.835 199.796 900.84 197.387C897.91 194.913 893.939 192.634 888.926 190.551C883.978 188.402 877.793 186.286 870.371 184.203C863.275 182.185 856.862 179.971 851.133 177.562C845.404 175.154 840.488 172.387 836.387 169.262C832.35 166.137 829.258 162.491 827.109 158.324C824.961 154.092 823.887 149.177 823.887 143.578C823.887 138.109 825.059 133.129 827.402 128.637C829.746 124.145 833.034 120.271 837.266 117.016C841.562 113.76 846.608 111.254 852.402 109.496C858.262 107.738 864.674 106.859 871.641 106.859C881.602 106.859 890.195 108.747 897.422 112.523C904.714 116.299 910.345 121.41 914.316 127.855C918.353 134.236 920.371 141.397 920.371 149.34H908.359C908.359 143.155 906.895 137.654 903.965 132.836C901.1 127.953 896.934 124.145 891.465 121.41C886.061 118.611 879.453 117.211 871.641 117.211C863.828 117.211 857.253 118.415 851.914 120.824C846.641 123.168 842.637 126.326 839.902 130.297C837.233 134.203 835.898 138.565 835.898 143.383C835.898 146.768 836.549 149.893 837.852 152.758C839.154 155.557 841.27 158.194 844.199 160.668C847.194 163.077 851.133 165.355 856.016 167.504C860.898 169.587 866.921 171.573 874.082 173.461C881.634 175.544 888.34 177.855 894.199 180.395C900.059 182.934 905.007 185.863 909.043 189.184C913.079 192.439 916.139 196.247 918.223 200.609C920.306 204.971 921.348 210.049 921.348 215.844C921.348 221.638 920.111 226.846 917.637 231.469C915.228 236.026 911.81 239.9 907.383 243.09C903.021 246.28 897.845 248.721 891.855 250.414C885.931 252.107 879.453 252.953 872.422 252.953C866.107 252.953 859.824 252.139 853.574 250.512C847.324 248.884 841.595 246.378 836.387 242.992C831.243 239.542 827.109 235.115 823.984 229.711C820.924 224.307 819.395 217.862 819.395 210.375H831.309C831.309 216.365 832.513 221.41 834.922 225.512C837.331 229.613 840.521 232.934 844.492 235.473C848.529 238.012 852.956 239.867 857.773 241.039C862.656 242.146 867.539 242.699 872.422 242.699C879.909 242.699 886.387 241.592 891.855 239.379C897.389 237.165 901.654 234.073 904.648 230.102C907.708 226.065 909.238 221.378 909.238 216.039ZM956.211 101V251H944.59V101H956.211ZM953.574 191.625L948.398 188.695C948.789 182.445 950.059 176.586 952.207 171.117C954.355 165.648 957.253 160.831 960.898 156.664C964.609 152.497 968.939 149.242 973.887 146.898C978.9 144.555 984.434 143.383 990.488 143.383C995.762 143.383 1000.48 144.099 1004.65 145.531C1008.82 146.964 1012.36 149.242 1015.29 152.367C1018.22 155.492 1020.44 159.496 1021.93 164.379C1023.5 169.262 1024.28 175.219 1024.28 182.25V251H1012.56V182.152C1012.56 174.861 1011.55 169.164 1009.53 165.062C1007.51 160.896 1004.65 157.934 1000.94 156.176C997.227 154.418 992.832 153.539 987.754 153.539C982.155 153.539 977.24 154.776 973.008 157.25C968.841 159.659 965.326 162.816 962.461 166.723C959.661 170.564 957.513 174.698 956.016 179.125C954.518 183.487 953.704 187.654 953.574 191.625ZM1047.91 199.828V196.605C1047.91 188.923 1049.02 181.827 1051.23 175.316C1053.44 168.806 1056.6 163.174 1060.7 158.422C1064.87 153.669 1069.85 149.991 1075.64 147.387C1081.44 144.717 1087.88 143.383 1094.98 143.383C1102.14 143.383 1108.62 144.717 1114.41 147.387C1120.21 149.991 1125.19 153.669 1129.36 158.422C1133.52 163.174 1136.71 168.806 1138.93 175.316C1141.14 181.827 1142.25 188.923 1142.25 196.605V199.828C1142.25 207.51 1141.14 214.607 1138.93 221.117C1136.71 227.562 1133.52 233.161 1129.36 237.914C1125.25 242.667 1120.31 246.378 1114.51 249.047C1108.72 251.651 1102.27 252.953 1095.18 252.953C1088.01 252.953 1081.54 251.651 1075.74 249.047C1069.95 246.378 1064.97 242.667 1060.8 237.914C1056.63 233.161 1053.44 227.562 1051.23 221.117C1049.02 214.607 1047.91 207.51 1047.91 199.828ZM1059.53 196.605V199.828C1059.53 205.622 1060.31 211.124 1061.88 216.332C1063.44 221.475 1065.72 226.065 1068.71 230.102C1071.71 234.073 1075.42 237.198 1079.84 239.477C1084.27 241.755 1089.38 242.895 1095.18 242.895C1100.9 242.895 1105.95 241.755 1110.31 239.477C1114.74 237.198 1118.45 234.073 1121.45 230.102C1124.44 226.065 1126.69 221.475 1128.18 216.332C1129.75 211.124 1130.53 205.622 1130.53 199.828V196.605C1130.53 190.876 1129.75 185.44 1128.18 180.297C1126.69 175.154 1124.41 170.564 1121.35 166.527C1118.35 162.491 1114.64 159.301 1110.21 156.957C1105.79 154.613 1100.71 153.441 1094.98 153.441C1089.25 153.441 1084.17 154.613 1079.75 156.957C1075.38 159.301 1071.67 162.491 1068.61 166.527C1065.62 170.564 1063.34 175.154 1061.78 180.297C1060.28 185.44 1059.53 190.876 1059.53 196.605ZM1177.99 165.648V291.625H1166.27V145.336H1177.21L1177.99 165.648ZM1251.43 197.191V199.242C1251.43 207.12 1250.51 214.346 1248.69 220.922C1246.87 227.497 1244.23 233.194 1240.78 238.012C1237.4 242.764 1233.2 246.443 1228.18 249.047C1223.17 251.651 1217.47 252.953 1211.09 252.953C1204.78 252.953 1199.15 251.977 1194.2 250.023C1189.25 248.07 1184.99 245.303 1181.41 241.723C1177.89 238.077 1175.06 233.845 1172.91 229.027C1170.83 224.145 1169.36 218.806 1168.52 213.012V185.961C1169.49 179.581 1171.09 173.786 1173.3 168.578C1175.51 163.37 1178.35 158.878 1181.8 155.102C1185.31 151.326 1189.48 148.428 1194.3 146.41C1199.11 144.392 1204.62 143.383 1210.8 143.383C1217.25 143.383 1222.98 144.652 1227.99 147.191C1233.07 149.665 1237.33 153.279 1240.78 158.031C1244.3 162.719 1246.93 168.383 1248.69 175.023C1250.51 181.599 1251.43 188.988 1251.43 197.191ZM1239.71 199.242V197.191C1239.71 191.007 1239.06 185.277 1237.75 180.004C1236.52 174.73 1234.6 170.141 1231.99 166.234C1229.45 162.263 1226.2 159.171 1222.23 156.957C1218.32 154.743 1213.67 153.637 1208.26 153.637C1202.66 153.637 1197.88 154.581 1193.91 156.469C1190 158.292 1186.74 160.733 1184.14 163.793C1181.54 166.788 1179.49 170.076 1177.99 173.656C1176.49 177.237 1175.38 180.753 1174.67 184.203V215.355C1175.9 220.303 1177.89 224.893 1180.62 229.125C1183.36 233.292 1187.01 236.645 1191.56 239.184C1196.18 241.658 1201.82 242.895 1208.46 242.895C1213.8 242.895 1218.42 241.788 1222.32 239.574C1226.23 237.361 1229.45 234.268 1231.99 230.297C1234.6 226.326 1236.52 221.703 1237.75 216.43C1239.06 211.156 1239.71 205.427 1239.71 199.242Z" style="stroke: rgb(255, 255, 255); fill: rgb(255, 255, 255);"/>
</svg>